<svg width="2555" height="899" xmlns="http://www.w3.org/2000/svg" xmlns:xlink="http://www.w3.org/1999/xlink" overflow="hidden"><defs><clipPath id="clip0"><rect x="879" y="751" width="2555" height="899"/></clipPath></defs><g clip-path="url(#clip0)" transform="translate(-879 -751)"><path d="M1993.92 1252.36C1970.48 1252.36 1950.68 1265.98 1934.52 1293.24 1918.36 1320.49 1910.28 1353.44 1910.28 1392.11L1910.28 1394.01C1947.66 1385.13 1977.13 1371.82 1998.68 1354.08 2020.21 1336.33 2030.99 1315.73 2030.99 1292.29 2030.99 1280.24 2027.67 1270.58 2021.01 1263.29 2014.36 1256 2005.33 1252.36 1993.92 1252.36ZM1619.54 1252.36C1596.09 1252.36 1576.29 1265.98 1560.13 1293.24 1543.98 1320.49 1535.9 1353.44 1535.9 1392.11L1535.9 1394.01C1573.28 1385.13 1602.74 1371.82 1624.29 1354.08 1645.82 1336.33 1656.6 1315.73 1656.6 1292.29 1656.6 1280.24 1653.28 1270.58 1646.62 1263.29 1639.97 1256 1630.94 1252.36 1619.54 1252.36ZM3092.68 782.736C3207.36 782.736 3292.9 802.065 3349.3 840.726 3405.69 879.385 3433.89 930.404 3433.89 993.781 3433.89 1047.65 3414.88 1094.08 3376.86 1133.06 3338.85 1172.03 3283.39 1200.08 3210.53 1217.19 3249.82 1227.96 3279.59 1245.55 3299.88 1269.95 3320.15 1294.34 3330.29 1322.39 3330.29 1354.08 3330.29 1404.14 3314.61 1447.56 3283.24 1484.32 3251.88 1521.07 3206.09 1549.44 3145.9 1569.41 3085.7 1589.37 3013.15 1599.35 2928.25 1599.35 2896.56 1599.35 2871.22 1598.4 2852.21 1596.5 2851.57 1614.24 2843.97 1627.55 2829.4 1636.43 2814.82 1645.3 2796.13 1649.74 2773.32 1649.74 2750.51 1649.74 2734.83 1644.66 2726.28 1634.53 2717.72 1624.38 2714.07 1609.48 2715.34 1589.84 2717.48 1556.57 2720.38 1522.7 2724.03 1488.22L2726.36 1467.59 2724.12 1473.83C2721.3 1480.66 2717.63 1486.7 2713.12 1491.93 2685.87 1525.51 2656.57 1553.08 2625.2 1574.63 2593.84 1596.17 2558.19 1606.96 2518.28 1606.96 2485.96 1606.96 2461.56 1597.6 2445.09 1578.91 2428.61 1560.21 2420.38 1533.12 2420.38 1497.63 2420.38 1479.88 2424.81 1448.2 2433.68 1402.57 2441.91 1362.64 2446.04 1335.07 2446.04 1319.86 2446.04 1309.71 2442.55 1304.65 2435.59 1304.65 2427.34 1304.65 2415.78 1315.26 2400.89 1336.5 2386 1357.72 2370.79 1385.77 2355.27 1420.63 2339.74 1455.48 2327.23 1492.24 2317.73 1530.9 2310.75 1560.69 2302.67 1580.81 2293.49 1591.27 2284.3 1601.73 2269.88 1606.96 2250.25 1606.96 2226.16 1606.96 2209.21 1594.27 2199.4 1568.93 2196.33 1561 2193.73 1551.6 2191.62 1540.7L2191.36 1539.26 2186.7 1542.8C2173.39 1552.46 2158.7 1561.8 2142.67 1570.83 2099.9 1594.91 2054.12 1606.96 2005.33 1606.96 1938.8 1606.96 1887.15 1588.89 1850.41 1552.77 1843.51 1545.99 1837.26 1538.75 1831.66 1531.04L1830.18 1528.88 1825.18 1533.04C1808.63 1546.18 1789.67 1558.79 1768.28 1570.83 1725.51 1594.91 1679.73 1606.96 1630.94 1606.96 1564.41 1606.96 1512.76 1588.89 1476.02 1552.77 1439.26 1516.64 1420.89 1467.21 1420.89 1404.47 1420.89 1360.74 1430.07 1320.01 1448.45 1282.31 1466.83 1244.59 1492.33 1214.65 1524.97 1192.47 1557.59 1170.28 1594.5 1159.2 1635.69 1159.2 1672.44 1159.2 1701.9 1170.13 1724.09 1192 1746.26 1213.86 1757.35 1243.48 1757.35 1280.88 1757.35 1324.61 1741.67 1362.16 1710.31 1393.53 1678.94 1424.91 1625.87 1449.77 1551.1 1468.16 1566.94 1497.31 1597.04 1511.89 1641.4 1511.89 1669.91 1511.89 1702.38 1501.91 1738.82 1481.95 1757.03 1471.96 1774.02 1460.43 1789.78 1447.36L1797.53 1440.62 1797.21 1438.35C1795.92 1427.53 1795.28 1416.22 1795.28 1404.47 1795.28 1360.74 1804.46 1320.01 1822.84 1282.31 1841.21 1244.59 1866.71 1214.65 1899.35 1192.47 1931.98 1170.28 1968.89 1159.2 2010.08 1159.2 2046.83 1159.2 2076.29 1170.13 2098.47 1192 2120.65 1213.86 2131.74 1243.48 2131.74 1280.88 2131.74 1324.61 2116.06 1362.16 2084.69 1393.53 2053.33 1424.91 2000.25 1449.77 1925.49 1468.16 1941.32 1497.31 1971.43 1511.89 2015.78 1511.89 2044.3 1511.89 2076.76 1501.91 2113.21 1481.95 2135.97 1469.46 2156.82 1454.57 2175.76 1437.26L2185 1428.41 2185.21 1416.54C2187.77 1345.35 2199.32 1277.31 2219.83 1212.44 2225.53 1194.05 2234.88 1180.59 2247.87 1172.03 2260.85 1163.48 2279.07 1159.2 2302.52 1159.2 2315.19 1159.2 2324.06 1160.78 2329.13 1163.95 2334.2 1167.12 2336.74 1173.13 2336.74 1182.01 2336.74 1192.15 2331.99 1214.96 2322.48 1250.46 2316.14 1275.8 2311.08 1297.99 2307.27 1317.01 2303.47 1336.02 2300.3 1359.46 2297.77 1387.36 2318.68 1332.84 2342.12 1288.49 2368.1 1254.26 2394.08 1220.04 2419.58 1195.64 2444.61 1181.06 2469.64 1166.48 2492.61 1159.2 2513.52 1159.2 2554.71 1159.2 2575.3 1179.79 2575.3 1220.99 2575.3 1245.71 2568.33 1290.39 2554.39 1355.03 2542.35 1410.17 2536.33 1446.61 2536.33 1464.36 2536.33 1489.7 2545.51 1502.38 2563.9 1502.38 2576.57 1502.38 2591.61 1494.62 2609.04 1479.09 2626.47 1463.56 2649.75 1438.37 2678.9 1403.52 2686.51 1394.64 2695.06 1390.21 2704.57 1390.21 2712.79 1390.21 2719.3 1394.01 2724.05 1401.62 2728.2 1408.27 2730.54 1417.1 2731.06 1428.13L2731.07 1428.58 2732.35 1418.46C2737.01 1383.18 2742.43 1347.3 2748.61 1310.83 2765.08 1213.54 2785.99 1119.58 2811.34 1028.96 2815.77 1013.11 2824.65 1002.02 2837.95 995.682 2851.26 989.344 2868.68 986.176 2890.23 986.176 2928.87 986.176 2948.21 996.95 2948.21 1018.5 2948.21 1027.37 2946.31 1037.51 2942.5 1048.92 2926.02 1098.36 2909.55 1165.38 2893.08 1249.99 2876.6 1334.59 2864.88 1415.24 2857.91 1491.93 2888.33 1494.45 2913.04 1495.73 2932.05 1495.73 3020.75 1495.73 3085.86 1482.9 3127.37 1457.23 3168.86 1431.56 3189.62 1398.76 3189.62 1358.84 3189.62 1330.94 3177.74 1307.5 3153.98 1288.49 3130.22 1269.47 3090.45 1259.02 3034.7 1257.12 3022.02 1256.48 3013.15 1253.31 3008.09 1247.61 3003.01 1241.91 3000.48 1232.71 3000.48 1220.04 3000.48 1201.65 3004.28 1186.77 3011.89 1175.36 3019.49 1163.95 3033.42 1157.92 3053.71 1157.3 3098.69 1156.02 3139.4 1149.37 3175.84 1137.33 3212.27 1125.29 3240.95 1108.34 3261.86 1086.47 3282.77 1064.6 3293.22 1039.09 3293.22 1009.94 3293.22 973.183 3275.16 944.188 3239.05 922.957 3202.93 901.725 3147.48 891.11 3072.72 891.11 3004.91 891.11 2939.33 899.824 2875.97 917.254 2812.6 934.682 2758.74 956.706 2714.39 983.324 2694.11 995.365 2677 1001.39 2663.07 1001.39 2651.66 1001.39 2642.95 997.425 2636.93 989.503 2630.9 981.58 2627.9 971.599 2627.9 959.558 2627.9 943.713 2631.23 930.087 2637.88 918.679 2644.54 907.272 2660.53 894.279 2685.88 879.703 2739.11 849.282 2801.51 825.515 2873.12 808.404 2944.72 791.292 3017.9 782.736 3092.68 782.736Z" fill="#FFFFFF" fill-rule="evenodd"/><path d="M1403.91 751C1478.52 751 1538.02 752.357 1582.44 755.07 1626.86 757.784 1665.69 762.193 1698.92 768.299 1719.94 772.37 1735.72 779.493 1746.23 789.669 1756.73 799.845 1762 811.716 1762 825.285 1762 847.672 1755.73 863.954 1743.18 874.13 1730.63 884.306 1710.79 888.376 1683.66 886.341 1622.63 881.593 1574.98 878.369 1540.74 876.673 1506.49 874.978 1461.56 873.79 1405.95 873.112 1380.86 997.937 1357.8 1123.44 1336.77 1249.62 1329.31 1295.75 1321.51 1349.18 1313.38 1409.9 1305.23 1470.62 1299.81 1519.62 1297.1 1556.94 1295.74 1576.61 1287.6 1591.71 1272.69 1602.22 1257.76 1612.74 1239.79 1618 1218.77 1618 1196.39 1618 1179.09 1612.56 1166.89 1601.72 1154.68 1590.86 1148.58 1576.61 1148.58 1558.97 1148.58 1542.69 1151.12 1515.72 1156.21 1478.08 1161.29 1440.42 1167.23 1400.91 1174.01 1359.52 1181.47 1318.14 1187.24 1282.19 1191.31 1251.66 1198.77 1200.1 1207.24 1148.88 1216.74 1098 1226.23 1047.12 1235.73 998.955 1245.22 953.503 1247.26 943.327 1249.63 931.624 1252.34 918.395 1255.05 905.166 1258.1 890.411 1261.5 874.13 1195.04 876.165 1142.82 881.593 1104.84 890.411 1066.86 899.23 1039.9 911.612 1023.96 927.554 1008.03 943.496 1000.05 964.018 1000.05 989.119 1000.05 1012.18 1006.84 1034.23 1020.4 1055.26 1023.11 1060.01 1024.47 1065.1 1024.47 1070.53 1024.47 1083.41 1016.85 1095.46 1001.59 1106.66 986.321 1117.84 970.554 1123.44 954.277 1123.44 942.749 1123.44 933.254 1120.05 925.795 1113.27 912.231 1101.74 901.041 1085.28 892.224 1063.91 883.407 1042.54 879 1018.29 879 991.154 879 933.49 897.82 887.188 935.458 852.251 973.098 817.313 1030.4 791.704 1107.38 775.422 1184.35 759.141 1283.2 751 1403.91 751Z" fill="#FFFFFF" fill-rule="evenodd"/></g></svg>