<svg width="2555" height="899" xmlns="http://www.w3.org/2000/svg" xmlns:xlink="http://www.w3.org/1999/xlink" overflow="hidden"><defs><clipPath id="clip0"><rect x="729" y="788" width="2555" height="899"/></clipPath><linearGradient x1="2592.38" y1="521.9" x2="1962.4" y2="1984.57" gradientUnits="userSpaceOnUse" spreadMethod="reflect" id="fill1"><stop offset="0" stop-color="#45C6E4"/><stop offset="0.24" stop-color="#45C6E4"/><stop offset="1" stop-color="#2BA3EF"/></linearGradient><linearGradient x1="1603.93" y1="780.074" x2="737.072" y2="1662.93" gradientUnits="userSpaceOnUse" spreadMethod="reflect" id="fill2"><stop offset="0" stop-color="#45C6E4"/><stop offset="0.24" stop-color="#45C6E4"/><stop offset="1" stop-color="#2BA3EF"/></linearGradient></defs><g clip-path="url(#clip0)" transform="translate(-729 -788)"><path d="M1843.92 1289.36C1820.48 1289.36 1800.68 1302.98 1784.52 1330.24 1768.36 1357.49 1760.28 1390.44 1760.28 1429.11L1760.28 1431.01C1797.66 1422.13 1827.13 1408.82 1848.68 1391.08 1870.21 1373.33 1880.99 1352.73 1880.99 1329.29 1880.99 1317.24 1877.67 1307.58 1871.01 1300.29 1864.36 1293 1855.33 1289.36 1843.92 1289.36ZM1469.54 1289.36C1446.09 1289.36 1426.29 1302.98 1410.13 1330.24 1393.97 1357.49 1385.9 1390.44 1385.9 1429.11L1385.9 1431.01C1423.28 1422.13 1452.74 1408.82 1474.29 1391.08 1495.82 1373.33 1506.6 1352.73 1506.6 1329.29 1506.6 1317.24 1503.28 1307.58 1496.62 1300.29 1489.97 1293 1480.94 1289.36 1469.54 1289.36ZM2942.68 819.736C3057.36 819.736 3142.9 839.065 3199.3 877.726 3255.69 916.385 3283.89 967.404 3283.89 1030.78 3283.89 1084.65 3264.88 1131.08 3226.86 1170.06 3188.84 1209.03 3133.39 1237.08 3060.53 1254.19 3099.81 1264.96 3129.59 1282.55 3149.88 1306.95 3170.15 1331.34 3180.29 1359.39 3180.29 1391.08 3180.29 1441.14 3164.61 1484.56 3133.24 1521.32 3101.88 1558.07 3056.09 1586.44 2995.9 1606.41 2935.7 1626.37 2863.15 1636.35 2778.25 1636.35 2746.56 1636.35 2721.22 1635.4 2702.21 1633.5 2701.57 1651.24 2693.97 1664.55 2679.4 1673.43 2664.82 1682.3 2646.13 1686.74 2623.32 1686.74 2600.51 1686.74 2584.83 1681.66 2576.27 1671.53 2567.72 1661.38 2564.07 1646.48 2565.34 1626.84 2567.48 1593.57 2570.38 1559.7 2574.03 1525.22L2576.36 1504.59 2574.12 1510.83C2571.3 1517.66 2567.63 1523.7 2563.12 1528.93 2535.87 1562.51 2506.57 1590.08 2475.2 1611.63 2443.84 1633.17 2408.19 1643.96 2368.28 1643.96 2335.96 1643.96 2311.56 1634.6 2295.09 1615.91 2278.61 1597.21 2270.38 1570.12 2270.38 1534.63 2270.38 1516.88 2274.81 1485.2 2283.68 1439.57 2291.91 1399.64 2296.04 1372.07 2296.04 1356.86 2296.04 1346.71 2292.55 1341.65 2285.59 1341.65 2277.34 1341.65 2265.78 1352.26 2250.89 1373.5 2236 1394.72 2220.79 1422.77 2205.27 1457.63 2189.74 1492.48 2177.23 1529.24 2167.73 1567.9 2160.75 1597.69 2152.67 1617.81 2143.49 1628.27 2134.3 1638.73 2119.88 1643.96 2100.25 1643.96 2076.16 1643.96 2059.21 1631.27 2049.4 1605.93 2046.33 1598 2043.73 1588.6 2041.62 1577.7L2041.36 1576.26 2036.7 1579.8C2023.39 1589.46 2008.7 1598.8 1992.67 1607.83 1949.9 1631.91 1904.12 1643.96 1855.33 1643.96 1788.8 1643.96 1737.15 1625.89 1700.4 1589.77 1693.51 1582.99 1687.26 1575.75 1681.66 1568.04L1680.18 1565.88 1675.18 1570.04C1658.63 1583.18 1639.67 1595.79 1618.28 1607.83 1575.51 1631.91 1529.73 1643.96 1480.94 1643.96 1414.41 1643.96 1362.76 1625.89 1326.02 1589.77 1289.26 1553.64 1270.89 1504.21 1270.89 1441.47 1270.89 1397.74 1280.07 1357.01 1298.45 1319.31 1316.83 1281.59 1342.33 1251.65 1374.97 1229.47 1407.59 1207.28 1444.5 1196.2 1485.69 1196.2 1522.44 1196.2 1551.9 1207.13 1574.09 1229 1596.26 1250.86 1607.35 1280.48 1607.35 1317.88 1607.35 1361.61 1591.67 1399.16 1560.3 1430.53 1528.94 1461.91 1475.86 1486.77 1401.1 1505.16 1416.94 1534.31 1447.04 1548.89 1491.4 1548.89 1519.91 1548.89 1552.38 1538.91 1588.82 1518.95 1607.03 1508.96 1624.02 1497.43 1639.78 1484.36L1647.53 1477.62 1647.21 1475.35C1645.92 1464.53 1645.28 1453.22 1645.28 1441.47 1645.28 1397.74 1654.46 1357.01 1672.84 1319.31 1691.21 1281.59 1716.71 1251.65 1749.35 1229.47 1781.98 1207.28 1818.89 1196.2 1860.08 1196.2 1896.82 1196.2 1926.29 1207.13 1948.47 1229 1970.65 1250.86 1981.74 1280.48 1981.74 1317.88 1981.74 1361.61 1966.06 1399.16 1934.69 1430.53 1903.33 1461.91 1850.25 1486.77 1775.49 1505.16 1791.32 1534.31 1821.43 1548.89 1865.78 1548.89 1894.3 1548.89 1926.76 1538.91 1963.21 1518.95 1985.97 1506.46 2006.82 1491.57 2025.76 1474.27L2035 1465.41 2035.21 1453.54C2037.77 1382.35 2049.32 1314.31 2069.83 1249.44 2075.53 1231.05 2084.88 1217.59 2097.87 1209.03 2110.85 1200.48 2129.07 1196.2 2152.52 1196.2 2165.19 1196.2 2174.06 1197.78 2179.13 1200.95 2184.2 1204.12 2186.74 1210.13 2186.74 1219.01 2186.74 1229.15 2181.99 1251.96 2172.48 1287.46 2166.14 1312.8 2161.08 1334.99 2157.27 1354.01 2153.47 1373.02 2150.3 1396.46 2147.77 1424.36 2168.68 1369.84 2192.12 1325.49 2218.1 1291.26 2244.08 1257.04 2269.58 1232.64 2294.61 1218.06 2319.64 1203.48 2342.61 1196.2 2363.52 1196.2 2404.71 1196.2 2425.3 1216.79 2425.3 1257.99 2425.3 1282.71 2418.32 1327.39 2404.39 1392.03 2392.35 1447.17 2386.33 1483.61 2386.33 1501.36 2386.33 1526.7 2395.51 1539.38 2413.9 1539.38 2426.57 1539.38 2441.61 1531.62 2459.04 1516.09 2476.47 1500.56 2499.75 1475.37 2528.9 1440.52 2536.51 1431.64 2545.06 1427.21 2554.56 1427.21 2562.79 1427.21 2569.3 1431.01 2574.05 1438.62 2578.2 1445.27 2580.54 1454.1 2581.06 1465.13L2581.07 1465.58 2582.35 1455.46C2587.01 1420.18 2592.43 1384.3 2598.61 1347.83 2615.08 1250.54 2635.99 1156.58 2661.34 1065.96 2665.77 1050.11 2674.65 1039.02 2687.95 1032.68 2701.26 1026.34 2718.68 1023.18 2740.23 1023.18 2778.87 1023.18 2798.21 1033.95 2798.21 1055.5 2798.21 1064.37 2796.31 1074.51 2792.5 1085.92 2776.02 1135.36 2759.55 1202.38 2743.08 1286.99 2726.6 1371.59 2714.88 1452.24 2707.91 1528.93 2738.33 1531.45 2763.04 1532.73 2782.05 1532.73 2870.75 1532.73 2935.86 1519.9 2977.37 1494.23 3018.86 1468.56 3039.62 1435.76 3039.62 1395.84 3039.62 1367.94 3027.74 1344.5 3003.98 1325.49 2980.22 1306.47 2940.45 1296.02 2884.7 1294.12 2872.02 1293.48 2863.15 1290.31 2858.09 1284.61 2853.01 1278.91 2850.48 1269.71 2850.48 1257.04 2850.48 1238.65 2854.28 1223.77 2861.89 1212.36 2869.49 1200.95 2883.42 1194.92 2903.71 1194.3 2948.69 1193.02 2989.4 1186.37 3025.84 1174.33 3062.27 1162.29 3090.95 1145.34 3111.86 1123.47 3132.77 1101.6 3143.22 1076.09 3143.22 1046.94 3143.22 1010.18 3125.16 981.188 3089.05 959.957 3052.93 938.725 2997.48 928.11 2922.72 928.11 2854.91 928.11 2789.33 936.824 2725.97 954.253 2662.6 971.681 2608.74 993.705 2564.39 1020.32 2544.11 1032.36 2527 1038.39 2513.07 1038.39 2501.66 1038.39 2492.95 1034.42 2486.93 1026.5 2480.9 1018.58 2477.9 1008.6 2477.9 996.557 2477.9 980.713 2481.23 967.087 2487.88 955.679 2494.54 944.272 2510.53 931.279 2535.88 916.702 2589.11 886.281 2651.51 862.515 2723.12 845.403 2794.72 828.291 2867.9 819.736 2942.68 819.736Z" fill="url(#fill1)" fill-rule="evenodd"/><path d="M1253.91 788C1328.52 788 1388.02 789.357 1432.44 792.07 1476.86 794.783 1515.69 799.193 1548.92 805.299 1569.94 809.369 1585.72 816.492 1596.22 826.669 1606.73 836.845 1612 848.716 1612 862.285 1612 884.672 1605.73 900.953 1593.18 911.13 1580.63 921.306 1560.79 925.376 1533.66 923.341 1472.63 918.592 1424.98 915.369 1390.74 913.673 1356.49 911.978 1311.56 910.79 1255.95 910.112 1230.86 1034.94 1207.8 1160.44 1186.77 1286.62 1179.31 1332.75 1171.51 1386.18 1163.38 1446.9 1155.23 1507.62 1149.81 1556.62 1147.1 1593.94 1145.74 1613.61 1137.6 1628.71 1122.69 1639.22 1107.76 1649.74 1089.79 1655 1068.77 1655 1046.39 1655 1029.09 1649.56 1016.89 1638.72 1004.68 1627.86 998.576 1613.61 998.576 1595.97 998.576 1579.69 1001.12 1552.72 1006.21 1515.08 1011.29 1477.42 1017.23 1437.91 1024.01 1396.52 1031.47 1355.14 1037.24 1319.19 1041.31 1288.66 1048.77 1237.1 1057.24 1185.88 1066.74 1135 1076.23 1084.12 1085.73 1035.95 1095.22 990.503 1097.26 980.327 1099.63 968.624 1102.34 955.395 1105.05 942.166 1108.1 927.411 1111.5 911.13 1045.04 913.165 992.817 918.592 954.837 927.411 916.858 936.23 889.903 948.611 873.959 964.554 858.029 980.496 850.051 1001.02 850.051 1026.12 850.051 1049.18 856.841 1071.23 870.397 1092.26 873.108 1097.01 874.475 1102.1 874.475 1107.53 874.475 1120.41 866.846 1132.46 851.587 1143.66 836.322 1154.84 820.554 1160.44 804.277 1160.44 792.749 1160.44 783.254 1157.05 775.795 1150.27 762.231 1138.74 751.041 1122.28 742.225 1100.91 733.407 1079.54 729 1055.29 729 1028.15 729 970.49 747.82 924.188 785.458 889.251 823.098 854.313 880.402 828.704 957.381 812.422 1034.35 796.141 1133.2 788 1253.91 788Z" fill="url(#fill2)" fill-rule="evenodd"/></g></svg>